<svg xmlns="http://www.w3.org/2000/svg" viewBox="0 0 353.36 306.6"><defs><style>.cls-1{fill:#cad9e1;}</style></defs><title>camera</title><g id="Layer_2" data-name="Layer 2"><g id="Layer_1-2" data-name="Layer 1"><path class="cls-1" d="M176.45,306.59q-62,0-124,0c-5.81,0-11.62-.22-17.34-1.71C14.86,299.6.08,280.93.05,259.94Q0,176.81.06,93.7C.09,69.4,19.46,49,43.7,47.4c13.65-.88,27.32-.24,41-.3,2.72,0,4-.91,4.86-3.41,2.43-6.91,5-13.77,7.67-20.61C102.39,9.67,116.46,0,130.84,0q45.61,0,91.24,0a37.29,37.29,0,0,1,34.19,23.77c2.58,6.86,5.21,13.71,7.66,20.61a3.41,3.41,0,0,0,3.81,2.67q18.38-.12,36.75,0c10.5.06,20.29,2.65,28.86,9,13.35,9.83,19.94,23.21,20,39.7q.12,70.74,0,141.49c0,7.17.06,14.33,0,21.5-.21,22.36-14.63,40.79-36.26,46.42-5.38,1.4-10.9,1.44-16.37,1.45Q238.57,306.65,176.45,306.59Zm.21-48c44.44.33,82-36.26,81.83-81.89a81.75,81.75,0,0,0-82-81.83c-46.41,0-81.87,38.22-81.84,82C94.71,221.64,131.86,259.08,176.66,258.6Z"/><path class="cls-1" d="M123.38,177c-.29-29,23.57-53.16,52.85-53.45,29-.29,53.46,23.6,53.58,52.76S207.46,229.91,176.55,230C146.45,230.08,123.54,205.86,123.38,177Z"/></g></g></svg>