<svg xmlns="http://www.w3.org/2000/svg" viewBox="0 0 525.55 525.66"><defs><style>.cls-1{fill:#ea9313;}</style></defs><title>edit 2</title><g id="Layer_2" data-name="Layer 2"><g id="Layer_1-2" data-name="Layer 1"><path class="cls-1" d="M525.54,262.63c.58,143.91-116.53,262.91-262.44,263C118,525.77.06,408.4,0,262.89-.06,116.83,118.82.1,262.7,0,407.52-.1,526,118.12,525.54,262.63Zm-361.61,85.1c0,5.75.1,11.5,0,17.25-.06,2.42.8,3.15,3.18,3.13q16.86-.14,33.74,0a6.51,6.51,0,0,0,5.05-2.18c7.09-7.17,14.24-14.28,21.37-21.41q46.32-46.32,92.66-92.61c1.53-1.53,2.16-2.47.26-4.35q-18.25-18-36.26-36.22c-1.32-1.34-2.1-1.3-3.41,0q-57.41,57.49-114.9,114.91a5.46,5.46,0,0,0-1.67,4.23C164,336.23,163.93,342,163.93,347.73ZM356.36,210.44a11.27,11.27,0,0,0-3.29-7.33c-8.18-8.2-16.33-16.43-24.59-24.56a10.5,10.5,0,0,0-15.07,0c-6,5.88-11.9,11.9-17.89,17.81-1.1,1.08-1.34,1.82-.11,3q18.52,18.42,36.95,36.94c1.13,1.13,1.92,1.22,3.08,0,5.67-5.76,11.42-11.44,17.11-17.18A11.93,11.93,0,0,0,356.36,210.44Z"/></g></g></svg>