<svg xmlns="http://www.w3.org/2000/svg" viewBox="0 0 392.23 392.07"><defs><style>.cls-1{fill:#bdbdbd;}</style></defs><title>edit</title><g id="Layer_2" data-name="Layer 2"><g id="Layer_1-2" data-name="Layer 1"><path class="cls-1" d="M325.47,0a30.71,30.71,0,0,1,22.84,9.09Q365.76,26.28,383,43.73a31.54,31.54,0,0,1-.26,44.93c-27.77,27.83-55.71,55.52-83.34,83.5-27.4,27.74-55.12,55.17-82.48,82.94a58.1,58.1,0,0,1-19.51,13.42c-31.71,13.14-63.24,26.69-94.86,40-7.79,3.29-14.44,1.21-18.64-5.6-2.59-4.22-2.32-8.57-.49-12.94,3.25-7.76,6.55-15.5,9.84-23.24q16.14-37.95,32.28-75.89a32.79,32.79,0,0,1,7.1-10.71Q217.77,95.14,302.83,10C309.27,3.54,316.82-.06,325.47,0ZM129.73,262c1.43.31,2.28-.35,3.16-.71q26.24-11.07,52.45-22.2a14.41,14.41,0,0,0,4.91-2.88q59.24-59.33,118.56-118.55c1.6-1.59,1.73-2.57.05-4.22q-15.12-14.92-30-30c-1.83-1.87-2.86-1.64-4.58.09q-59,59.08-118,118.06a11.91,11.91,0,0,0-2.65,3.88q-10.29,24.39-20.65,48.77C131.85,256.76,130.82,259.34,129.73,262ZM359.79,66a2.45,2.45,0,0,0-.92-1.44q-15.63-15.63-31.25-31.28c-1.14-1.14-2-1.14-3.12,0q-12,12-24,24c-1.07,1.06-1.12,1.79,0,2.87q15.76,15.69,31.45,31.44c1,1,1.76,1.19,2.87.08,8-8,16-16,24-24C359.23,67.18,359.78,66.75,359.79,66Z"/><path class="cls-1" d="M195.81,392.06H16.61c-8.09,0-13.82-4.22-16-11.72-2.69-9.13,4.3-19.16,13.81-19.78.91-.06,1.83-.05,2.75-.05H375.05c8.59,0,14.26,4,16.53,11.72,2.72,9.24-4.43,19.31-14.06,19.8-1.25.06-2.5,0-3.75,0Z"/></g></g></svg>